<svg width="500" height="500" version="1.1" xmlns="http://www.w3.org/2000/svg" desc="Created with imagetracer.js version 1.2.6" ><path fill="rgb(2,2,2)" stroke="rgb(2,2,2)" stroke-width="1" opacity="0.9019607843137255" d="M 237.5 0 L 243 0.5 L 237.5 1 L 237.5 0 Z " /><path fill="rgb(2,2,2)" stroke="rgb(2,2,2)" stroke-width="1" opacity="0.9019607843137255" d="M 246.5 0 L 253 0.5 L 246.5 1 L 246.5 0 Z " /><path fill="rgb(2,2,2)" stroke="rgb(2,2,2)" stroke-width="1" opacity="0.9019607843137255" d="M 231.5 1 L 234 1.5 L 231.5 2 L 231.5 1 Z " /><path fill="rgb(2,2,2)" stroke="rgb(2,2,2)" stroke-width="1" opacity="0.9019607843137255" d="M 256.5 1 L 259 1.5 L 256.5 2 L 256.5 1 Z " /><path fill="rgb(2,2,2)" stroke="rgb(2,2,2)" stroke-width="1" opacity="0.9019607843137255" d="M 266.5 4 L 273 7.5 L 271.5 7 L 266.5 5 L 266.5 4 Z " /><path fill="rgb(2,2,2)" stroke="rgb(2,2,2)" stroke-width="1" opacity="0.9019607843137255" d="M 216.5 7 L 215.5 9 L 213.5 10 L 214.5 8 L 216.5 7 Z " /><path fill="rgb(2,2,2)" stroke="rgb(2,2,2)" stroke-width="1" opacity="0.9019607843137255" d="M 274.5 8 L 280 11.5 L 278.5 11 Q 274.5 10.5 274.5 8 Z " /><path fill="rgb(2,2,2)" stroke="rgb(2,2,2)" stroke-width="1" opacity="0.9019607843137255" d="M 209.5 11 L 208.5 13 L 206.5 14 L 207.5 12 L 209.5 11 Z " /><path fill="rgb(2,2,2)" stroke="rgb(2,2,2)" stroke-width="1" opacity="0.9019607843137255" d="M 281.5 12 L 287 15.5 L 285.5 15 Q 281.5 14.5 281.5 12 Z " /><path fill="rgb(2,2,2)" stroke="rgb(2,2,2)" stroke-width="1" opacity="0.9019607843137255" d="M 204.5 14 L 203.5 16 L 154.5 44 L 155.5 42 L 204.5 14 Z " /><path fill="rgb(2,2,2)" stroke="rgb(2,2,2)" stroke-width="1" opacity="0.9019607843137255" d="M 288.5 16 L 327 38.5 L 325.5 38 L 292.5 20 L 288.5 16 Z " /><path fill="rgb(2,2,2)" stroke="rgb(2,2,2)" stroke-width="1" opacity="0.9019607843137255" d="M 330.5 40 L 331.5 42 L 330.5 40 Z " /><path fill="rgb(2,2,2)" stroke="rgb(2,2,2)" stroke-width="1" opacity="0.9019607843137255" d="M 335.5 43 L 339 45.5 L 337.5 45 L 335.5 43 Z " /><path fill="rgb(2,2,2)" stroke="rgb(2,2,2)" stroke-width="1" opacity="0.9019607843137255" d="M 152.5 44 L 151.5 46 L 135.5 55 L 136.5 53 L 152.5 44 Z " /><path fill="rgb(2,2,2)" stroke="rgb(2,2,2)" stroke-width="1" opacity="0.9019607843137255" d="M 340.5 46 L 398 79.5 L 396.5 79 L 344.5 50 L 340.5 46 Z " /><path fill="rgb(2,2,2)" stroke="rgb(2,2,2)" stroke-width="1" opacity="0.9019607843137255" d="M 133.5 55 L 132.5 57 L 88.5 82 L 89.5 80 L 133.5 55 Z " /><path fill="rgb(2,2,2)" stroke="rgb(2,2,2)" stroke-width="1" opacity="0.9019607843137255" d="M 399.5 80 L 403 82.5 L 401.5 82 L 399.5 80 Z " /><path fill="rgb(2,2,2)" stroke="rgb(2,2,2)" stroke-width="1" opacity="0.9019607843137255" d="M 84.5 83 L 83.5 85 L 84.5 83 Z " /><path fill="rgb(2,2,2)" stroke="rgb(2,2,2)" stroke-width="1" opacity="0.9019607843137255" d="M 406.5 84 L 410 86.5 L 408.5 86 L 406.5 84 Z " /><path fill="rgb(2,2,2)" stroke="rgb(2,2,2)" stroke-width="1" opacity="0.9019607843137255" d="M 79.5 86 L 78.5 88 L 76.5 89 L 77.5 87 L 79.5 86 Z " /><path fill="rgb(2,2,2)" stroke="rgb(2,2,2)" stroke-width="1" opacity="0.9019607843137255" d="M 413.5 88 L 414.5 90 L 413.5 88 Z " /><path fill="rgb(2,2,2)" stroke="rgb(2,2,2)" stroke-width="1" opacity="0.9019607843137255" d="M 74.5 89 L 73.5 91 L 48.5 105 L 35 116.5 Q 26 127.5 22 143.5 L 22 355.5 Q 27.6 378.4 43.5 391 L 78 411.5 L 76.5 411 L 43.5 392 L 33 381.5 Q 24.2 371.3 21 355.5 L 21 143.5 Q 26.9 119.9 43.5 107 L 74.5 89 Z " /><path fill="rgb(2,2,2)" stroke="rgb(2,2,2)" stroke-width="1" opacity="0.9019607843137255" d="M 418.5 91 L 422 93.5 L 420.5 93 L 418.5 91 Z " /><path fill="rgb(2,2,2)" stroke="rgb(2,2,2)" stroke-width="1" opacity="0.9019607843137255" d="M 423.5 94 L 444.5 106 L 454 114.5 L 457 118.5 L 445.5 108 L 427.5 98 L 423.5 94 Z " /><path fill="rgb(2,2,2)" stroke="rgb(2,2,2)" stroke-width="1" opacity="0.9019607843137255" d="M 457.5 120 L 458.5 122 L 457.5 120 Z " /><path fill="rgb(2,2,2)" stroke="rgb(2,2,2)" stroke-width="1" opacity="0.9019607843137255" d="M 459.5 123 L 460.5 125 L 459.5 123 Z " /><path fill="rgb(2,2,2)" stroke="rgb(2,2,2)" stroke-width="1" opacity="0.9019607843137255" d="M 461.5 126 L 466 134.5 L 469 146.5 L 469 351.5 L 467 361.5 L 462.5 371 L 462 369.5 L 466 360.5 L 468 350.5 L 468 148.5 L 466 138.5 L 461 127.5 L 461.5 126 Z " /><path fill="rgb(2,2,2)" stroke="rgb(2,2,2)" stroke-width="1" opacity="0.9019607843137255" d="M 347.5 186 L 365.5 187 L 379 191.5 L 377.5 192 L 365.5 188 L 347.5 187 L 346.5 188 L 335.5 189 L 335.5 188 L 346.5 187 L 347.5 186 Z " /><path fill="rgb(2,2,2)" stroke="rgb(2,2,2)" stroke-width="1" opacity="0.9019607843137255" d="M 87 189 L 138 189.5 L 88.5 190 L 87.5 191 L 87 189 Z " /><path fill="rgb(2,2,2)" stroke="rgb(2,2,2)" stroke-width="1" opacity="0.9019607843137255" d="M 186 189 L 237 189.5 L 187 190 L 187 313.5 L 187.5 314 L 214.5 314 L 216 313.5 L 215.5 315 L 186 315 L 186 189 Z " /><path fill="rgb(2,2,2)" stroke="rgb(2,2,2)" stroke-width="1" opacity="0.9019607843137255" d="M 331.5 189 L 334 189.5 L 329.5 191 L 329.5 190 L 331.5 189 Z " /><path fill="rgb(2,2,2)" stroke="rgb(2,2,2)" stroke-width="1" opacity="0.9019607843137255" d="M 139.5 190 L 147 191.5 L 144.5 192 L 139.5 191 L 139.5 190 Z " /><path fill="rgb(2,2,2)" stroke="rgb(2,2,2)" stroke-width="1" opacity="0.9019607843137255" d="M 238.5 190 Q 258.3 192.3 267 205.5 L 258.5 198 Q 251.2 191.8 238.5 191 L 238.5 190 Z " /><path fill="rgb(2,2,2)" stroke="rgb(2,2,2)" stroke-width="1" opacity="0.9019607843137255" d="M 326.5 191 L 328 191.5 L 324.5 193 L 324.5 192 L 326.5 191 Z " /><path fill="rgb(2,2,2)" stroke="rgb(2,2,2)" stroke-width="1" opacity="0.9019607843137255" d="M 87.5 192 L 88 205.5 L 87 205.5 L 87.5 192 Z " /><path fill="rgb(2,2,2)" stroke="rgb(2,2,2)" stroke-width="1" opacity="0.9019607843137255" d="M 148.5 192 Q 160.4 196.1 167 205.5 L 158.5 198 L 148.5 193 L 148.5 192 Z " /><path fill="rgb(2,2,2)" stroke="rgb(2,2,2)" stroke-width="1" opacity="0.9019607843137255" d="M 380.5 192 Q 396.5 198 406 210.5 L 415 226.5 L 414 226.5 Q 408.6 212.9 398.5 204 Q 391.3 196.7 380.5 193 L 380.5 192 Z " /><path fill="rgb(2,2,2)" stroke="rgb(2,2,2)" stroke-width="1" opacity="0.9019607843137255" d="M 319.5 194 L 321 194.5 Q 307.3 201.8 298 213.5 L 291.5 225 L 291 223.5 Q 295.8 212.3 304.5 205 L 319.5 194 Z " /><path fill="rgb(2,2,2)" stroke="rgb(2,2,2)" stroke-width="1" opacity="0.9019607843137255" d="M 167.5 207 L 171 213.5 L 170 213.5 L 167.5 207 Z " /><path fill="rgb(2,2,2)" stroke="rgb(2,2,2)" stroke-width="1" opacity="0.9019607843137255" d="M 267.5 207 L 272 214.5 L 274 229.5 Q 271.5 231 273 236.5 L 268 247.5 L 258.5 257 L 256.5 258 L 257.5 256 L 266 248.5 L 271 239.5 L 273 225.5 L 271 214.5 L 267.5 207 Z " /><path fill="rgb(2,2,2)" stroke="rgb(2,2,2)" stroke-width="1" opacity="0.9019607843137255" d="M 116 214 Q 118.7 212.9 118 215.5 L 117 216.5 L 117 239.5 L 117.5 241 L 116 240.5 L 116 214 Z " /><path fill="rgb(2,2,2)" stroke="rgb(2,2,2)" stroke-width="1" opacity="0.9019607843137255" d="M 130.5 214 L 134 214.5 L 130.5 215 L 130.5 214 Z " /><path fill="rgb(2,2,2)" stroke="rgb(2,2,2)" stroke-width="1" opacity="0.9019607843137255" d="M 230.5 214 L 233 214.5 L 230.5 215 L 230.5 214 Z " /><path fill="rgb(2,2,2)" stroke="rgb(2,2,2)" stroke-width="1" opacity="0.9019607843137255" d="M 344.5 214 L 348 214.5 L 344.5 215 L 344.5 214 Z " /><path fill="rgb(2,2,2)" stroke="rgb(2,2,2)" stroke-width="1" opacity="0.9019607843137255" d="M 357.5 214 L 361 214.5 L 357.5 215 L 357.5 214 Z " /><path fill="rgb(2,2,2)" stroke="rgb(2,2,2)" stroke-width="1" opacity="0.9019607843137255" d="M 135.5 215 L 142 219.5 Q 145.3 223.2 144 231.5 L 138.5 239 L 132.5 241 L 132.5 240 Q 138.4 239.4 141 235.5 Q 144.3 231.8 143 223.5 L 136.5 216 L 135.5 215 Z " /><path fill="rgb(2,2,2)" stroke="rgb(2,2,2)" stroke-width="1" opacity="0.9019607843137255" d="M 215.5 215 L 216 239.5 L 215 239.5 L 215.5 215 Z " /><path fill="rgb(2,2,2)" stroke="rgb(2,2,2)" stroke-width="1" opacity="0.9019607843137255" d="M 234.5 215 Q 240.6 216.4 243 221.5 L 242.5 223 L 237.5 217 Q 233.7 216.7 234.5 215 Z " /><path fill="rgb(2,2,2)" stroke="rgb(2,2,2)" stroke-width="1" opacity="0.9019607843137255" d="M 365.5 216 Q 376.2 219.8 382 228.5 Q 390.5 238 389 257.5 Q 386.3 274.8 374.5 283 L 371.5 285 L 373.5 282 L 380 276.5 L 387 262.5 L 388 247.5 L 384 233.5 L 373.5 221 L 365.5 217 L 365.5 216 Z " /><path fill="rgb(2,2,2)" stroke="rgb(2,2,2)" stroke-width="1" opacity="0.9019607843137255" d="M 336.5 217 L 338 217.5 L 335.5 219 L 336.5 217 Z " /><path fill="rgb(2,2,2)" stroke="rgb(2,2,2)" stroke-width="1" opacity="0.9019607843137255" d="M 172.5 219 L 173 221.5 L 172 221.5 L 172.5 219 Z " /><path fill="rgb(2,2,2)" stroke="rgb(2,2,2)" stroke-width="1" opacity="0.9019607843137255" d="M 333.5 219 L 331.5 222 L 326 226.5 L 318 242.5 L 318 261.5 L 322 271.5 L 328 280 L 336 285.5 L 334.5 285 L 325 277.5 L 318 265.5 L 316 248.5 L 318 238.5 L 322 230.5 L 330.5 221 L 333.5 219 Z " /><path fill="rgb(2,2,2)" stroke="rgb(2,2,2)" stroke-width="1" opacity="0.9019607843137255" d="M 243.5 225 L 244 230.5 L 243 230.5 L 243.5 225 Z " /><path fill="rgb(2,2,2)" stroke="rgb(2,2,2)" stroke-width="1" opacity="0.9019607843137255" d="M 242.5 232 L 243 233.5 L 239.5 238 L 232.5 241 L 232.5 240 Q 238.3 239.3 241 235.5 L 242.5 232 Z " /><path fill="rgb(2,2,2)" stroke="rgb(2,2,2)" stroke-width="1" opacity="0.9019607843137255" d="M 172.5 233 L 173 235.5 L 172 235.5 L 172.5 233 Z " /><path fill="rgb(2,2,2)" stroke="rgb(2,2,2)" stroke-width="1" opacity="0.9019607843137255" d="M 418.5 238 L 419 240.5 L 418 240.5 L 418.5 238 Z " /><path fill="rgb(2,2,2)" stroke="rgb(2,2,2)" stroke-width="1" opacity="0.9019607843137255" d="M 286.5 239 L 287 243.5 L 286 243.5 L 286.5 239 Z " /><path fill="rgb(2,2,2)" stroke="rgb(2,2,2)" stroke-width="1" opacity="0.9019607843137255" d="M 119.5 241 L 129 241.5 L 119.5 242 L 119.5 241 Z " /><path fill="rgb(2,2,2)" stroke="rgb(2,2,2)" stroke-width="1" opacity="0.9019607843137255" d="M 219.5 241 L 229 241.5 L 219.5 242 L 219.5 241 Z " /><path fill="rgb(2,2,2)" stroke="rgb(2,2,2)" stroke-width="1" opacity="0.9019607843137255" d="M 419.5 245 L 420 258.5 L 419 258.5 L 419.5 245 Z " /><path fill="rgb(2,2,2)" stroke="rgb(2,2,2)" stroke-width="1" opacity="0.9019607843137255" d="M 168.5 246 L 167.5 248 L 168.5 246 Z " /><path fill="rgb(2,2,2)" stroke="rgb(2,2,2)" stroke-width="1" opacity="0.9019607843137255" d="M 166.5 249 L 163.5 253 L 166.5 249 Z " /><path fill="rgb(2,2,2)" stroke="rgb(2,2,2)" stroke-width="1" opacity="0.9019607843137255" d="M 161.5 254 L 157.5 259 L 149.5 263 L 149.5 262 Q 157.3 259.8 161.5 254 Z " /><path fill="rgb(2,2,2)" stroke="rgb(2,2,2)" stroke-width="1" opacity="0.9019607843137255" d="M 254.5 258 L 290 307.5 L 293 315 L 259.5 315 L 257 312.5 L 252 304.5 L 255 306.5 L 259 314 L 291.5 314 L 292 312.5 L 256 262.5 L 254.5 258 Z " /><path fill="rgb(2,2,2)" stroke="rgb(2,2,2)" stroke-width="1" opacity="0.9019607843137255" d="M 286.5 260 L 287 263.5 L 286 263.5 L 286.5 260 Z " /><path fill="rgb(2,2,2)" stroke="rgb(2,2,2)" stroke-width="1" opacity="0.9019607843137255" d="M 418.5 263 L 419 265.5 L 418 265.5 L 418.5 263 Z " /><path fill="rgb(2,2,2)" stroke="rgb(2,2,2)" stroke-width="1" opacity="0.9019607843137255" d="M 141.5 264 L 145 264.5 L 141.5 265 L 141.5 264 Z " /><path fill="rgb(2,2,2)" stroke="rgb(2,2,2)" stroke-width="1" opacity="0.9019607843137255" d="M 117.5 265 L 140 265.5 L 118.5 266 L 117 267.5 L 118 270.5 L 117 271.5 L 117 311.5 L 117 313.5 L 116.5 315 L 87 315 L 87.5 313 L 88.5 314 L 116 314 L 116 266.5 L 117.5 265 Z " /><path fill="rgb(2,2,2)" stroke="rgb(2,2,2)" stroke-width="1" opacity="0.9019607843137255" d="M 216.5 265 L 225.5 265 L 228 267.5 L 241 286.5 L 238 284.5 L 226 266 L 216.5 266 L 216.5 265 Z " /><path fill="rgb(2,2,2)" stroke="rgb(2,2,2)" stroke-width="1" opacity="0.9019607843137255" d="M 287.5 266 L 288 268.5 L 287 268.5 L 287.5 266 Z " /><path fill="rgb(2,2,2)" stroke="rgb(2,2,2)" stroke-width="1" opacity="0.9019607843137255" d="M 417.5 268 L 418 270.5 L 417 270.5 L 417.5 268 Z " /><path fill="rgb(2,2,2)" stroke="rgb(2,2,2)" stroke-width="1" opacity="0.9019607843137255" d="M 414.5 278 L 415 279.5 Q 408.6 293.1 397.5 302 Q 386.5 311.5 370.5 316 L 359.5 317 L 358.5 318 L 346.5 318 L 331.5 315 L 323.5 312 Q 310.5 305.5 301 295.5 L 291 279.5 L 292 279.5 Q 298.2 294.3 310.5 303 Q 319.3 310.2 331.5 314 L 339.5 316 L 356.5 317 L 357.5 316 L 365.5 316 L 379.5 312 Q 394.1 305.6 404 294.5 L 414.5 278 Z " /><path fill="rgb(2,2,2)" stroke="rgb(2,2,2)" stroke-width="1" opacity="0.9019607843137255" d="M 241.5 288 L 242.5 290 L 241.5 288 Z " /><path fill="rgb(2,2,2)" stroke="rgb(2,2,2)" stroke-width="1" opacity="0.9019607843137255" d="M 345.5 289 L 349 289.5 L 345.5 290 L 345.5 289 Z " /><path fill="rgb(2,2,2)" stroke="rgb(2,2,2)" stroke-width="1" opacity="0.9019607843137255" d="M 356.5 289 L 360 289.5 L 356.5 290 L 356.5 289 Z " /><path fill="rgb(2,2,2)" stroke="rgb(2,2,2)" stroke-width="1" opacity="0.9019607843137255" d="M 243.5 291 L 250 299.5 L 247 297.5 L 243.5 291 Z " /><path fill="rgb(2,2,2)" stroke="rgb(2,2,2)" stroke-width="1" opacity="0.9019607843137255" d="M 250.5 301 L 251.5 303 L 250.5 301 Z " /><path fill="rgb(2,2,2)" stroke="rgb(2,2,2)" stroke-width="1" opacity="0.9019607843137255" d="M 87.5 302 L 88 305.5 L 87 305.5 L 87.5 302 Z " /><path fill="rgb(2,2,2)" stroke="rgb(2,2,2)" stroke-width="1" opacity="0.9019607843137255" d="M 461.5 372 L 461 373.5 Q 456.5 384.5 447.5 391 L 425.5 404 L 426.5 402 Q 441 395.5 452 385.5 L 461.5 372 Z " /><path fill="rgb(2,2,2)" stroke="rgb(2,2,2)" stroke-width="1" opacity="0.9019607843137255" d="M 423.5 404 L 422.5 406 L 420.5 407 L 421.5 405 L 423.5 404 Z " /><path fill="rgb(2,2,2)" stroke="rgb(2,2,2)" stroke-width="1" opacity="0.9019607843137255" d="M 416.5 408 L 415.5 410 L 413.5 411 L 414.5 409 L 416.5 408 Z " /><path fill="rgb(2,2,2)" stroke="rgb(2,2,2)" stroke-width="1" opacity="0.9019607843137255" d="M 411.5 411 L 410.5 413 L 408.5 414 L 409.5 412 L 411.5 411 Z " /><path fill="rgb(2,2,2)" stroke="rgb(2,2,2)" stroke-width="1" opacity="0.9019607843137255" d="M 81.5 413 L 82.5 415 L 81.5 413 Z " /><path fill="rgb(2,2,2)" stroke="rgb(2,2,2)" stroke-width="1" opacity="0.9019607843137255" d="M 404.5 415 L 403.5 417 L 401.5 418 L 402.5 416 L 404.5 415 Z " /><path fill="rgb(2,2,2)" stroke="rgb(2,2,2)" stroke-width="1" opacity="0.9019607843137255" d="M 86.5 416 L 92 419.5 L 90.5 419 Q 86.5 418.5 86.5 416 Z " /><path fill="rgb(2,2,2)" stroke="rgb(2,2,2)" stroke-width="1" opacity="0.9019607843137255" d="M 399.5 418 L 398.5 420 L 347.5 449 L 348.5 447 L 399.5 418 Z " /><path fill="rgb(2,2,2)" stroke="rgb(2,2,2)" stroke-width="1" opacity="0.9019607843137255" d="M 93.5 420 L 132 442.5 L 130.5 442 L 94.5 422 L 93.5 420 Z " /><path fill="rgb(2,2,2)" stroke="rgb(2,2,2)" stroke-width="1" opacity="0.9019607843137255" d="M 133.5 443 L 151 453.5 L 149.5 453 L 134.5 445 L 133.5 443 Z " /><path fill="rgb(2,2,2)" stroke="rgb(2,2,2)" stroke-width="1" opacity="0.9019607843137255" d="M 345.5 449 L 344.5 451 L 342.5 452 L 343.5 450 L 345.5 449 Z " /><path fill="rgb(2,2,2)" stroke="rgb(2,2,2)" stroke-width="1" opacity="0.9019607843137255" d="M 340.5 452 L 339.5 454 L 337.5 455 L 338.5 453 L 340.5 452 Z " /><path fill="rgb(2,2,2)" stroke="rgb(2,2,2)" stroke-width="1" opacity="0.9019607843137255" d="M 152.5 454 L 156 456.5 L 154.5 456 L 152.5 454 Z " /><path fill="rgb(2,2,2)" stroke="rgb(2,2,2)" stroke-width="1" opacity="0.9019607843137255" d="M 333.5 456 L 332.5 458 L 330.5 459 L 331.5 457 L 333.5 456 Z " /><path fill="rgb(2,2,2)" stroke="rgb(2,2,2)" stroke-width="1" opacity="0.9019607843137255" d="M 157.5 457 L 163 460.5 L 161.5 460 Q 157.5 459.5 157.5 457 Z " /><path fill="rgb(2,2,2)" stroke="rgb(2,2,2)" stroke-width="1" opacity="0.9019607843137255" d="M 328.5 459 L 327.5 461 L 276.5 490 L 277.5 488 L 328.5 459 Z " /><path fill="rgb(2,2,2)" stroke="rgb(2,2,2)" stroke-width="1" opacity="0.9019607843137255" d="M 164.5 461 L 203 483.5 L 201.5 483 L 165.5 463 L 164.5 461 Z " /><path fill="rgb(2,2,2)" stroke="rgb(2,2,2)" stroke-width="1" opacity="0.9019607843137255" d="M 204.5 484 L 210 487.5 L 208.5 487 Q 204.5 486.5 204.5 484 Z " /><path fill="rgb(2,2,2)" stroke="rgb(2,2,2)" stroke-width="1" opacity="0.9019607843137255" d="M 211.5 488 L 217 491.5 L 215.5 491 Q 211.5 490.5 211.5 488 Z " /><path fill="rgb(2,2,2)" stroke="rgb(2,2,2)" stroke-width="1" opacity="0.9019607843137255" d="M 274.5 490 L 273.5 492 L 269.5 494 L 270.5 492 L 274.5 490 Z " /><path fill="rgb(2,2,2)" stroke="rgb(2,2,2)" stroke-width="1" opacity="0.9019607843137255" d="M 218.5 492 L 223 494.5 L 221.5 495 L 218.5 492 Z " /><path fill="rgb(2,2,2)" stroke="rgb(2,2,2)" stroke-width="1" opacity="0.9019607843137255" d="M 266.5 494 L 268 494.5 L 264.5 496 L 264.5 495 L 266.5 494 Z " /><path fill="rgb(2,2,2)" stroke="rgb(2,2,2)" stroke-width="1" opacity="0.9019607843137255" d="M 230.5 497 L 233 497.5 L 230.5 498 L 230.5 497 Z " /><path fill="rgb(2,2,2)" stroke="rgb(2,2,2)" stroke-width="1" opacity="0.9019607843137255" d="M 236.5 498 L 240 498.5 L 236.5 499 L 236.5 498 Z " /><path fill="rgb(2,2,2)" stroke="rgb(2,2,2)" stroke-width="1" opacity="0.9019607843137255" d="M 249.5 498 L 254 498.5 L 249.5 499 L 249.5 498 Z " /><path fill="rgb(0,0,0)" stroke="rgb(0,0,0)" stroke-width="1" opacity="1" d="M 243.5 0 L 259.5 2 L 273.5 8 L 307.5 29 L 329.5 40 L 356.5 57 L 439.5 104 L 457 119.5 L 464 132.5 L 468 148.5 L 468 350.5 L 462 371.5 L 450.5 387 L 419.5 407 L 382.5 427 L 268.5 494 L 256.5 498 L 240.5 499 L 229.5 497 L 217.5 492 L 174.5 466 L 163.5 461 L 103.5 425 L 56.5 399 L 43.5 391 L 35 382.5 Q 25.7 371.8 22 355.5 L 22 143.5 Q 27.4 121.4 42.5 109 L 85.5 83 L 96.5 78 Q 138.2 51.2 183.5 28 L 217.5 7 L 229.5 2 L 242.5 1 L 243.5 0 Z M 348 186 L 332 189 L 320 194 L 305 205 Q 296 212 291 224 L 286 240 L 286 251 L 285 252 Q 288 255 286 264 L 289 276 Q 293 287 301 296 Q 310 306 324 312 L 332 315 L 347 318 L 359 318 L 360 317 L 371 316 Q 386 311 398 302 L 412 286 L 418 271 L 419 260 L 420 259 L 420 246 L 418 235 Q 414 220 406 211 Q 396 199 382 192 L 366 187 L 348 186 Z M 87 189 L 87 232 L 87 234 Q 88 238 86 240 L 87 242 L 86 244 L 87 246 L 86 249 L 87 251 L 86 254 L 87 256 L 86 260 L 87 262 L 86 264 L 87 265 L 87 315 L 117 315 L 117 314 L 117 312 L 117 272 L 118 271 L 117 268 L 119 266 L 140 266 L 145 265 L 158 259 Q 169 251 173 236 Q 175 215 167 206 Q 159 194 144 190 Q 139 191 138 189 L 87 189 Z M 186 189 L 186 315 L 216 315 L 216 267 L 217 266 L 226 266 L 257 313 L 260 315 L 293 315 L 290 308 L 255 258 L 259 257 L 268 248 L 273 237 Q 272 231 274 230 L 272 215 L 267 206 Q 259 194 244 190 Q 238 192 237 189 L 186 189 Z " /><path fill="rgb(0,0,0)" stroke="rgb(0,0,0)" stroke-width="1" opacity="1" d="M 118 214 L 134.5 215 L 142 221.5 Q 144.3 224.7 143 231.5 L 138.5 238 Q 131.9 242.9 118.5 241 L 117 239.5 L 117 216.5 L 118 214 Z " /><path fill="rgb(0,0,0)" stroke="rgb(0,0,0)" stroke-width="1" opacity="1" d="M 216 214 L 233.5 215 L 242 221.5 Q 244.3 224.7 243 231.5 L 239.5 237 L 231.5 241 L 216 241 L 216 214 Z " /><path fill="rgb(0,0,0)" stroke="rgb(0,0,0)" stroke-width="1" opacity="1" d="M 348.5 214 L 356.5 214 L 364.5 216 Q 374.2 219.8 380 227.5 L 387 241.5 L 388 256.5 L 384 270.5 L 374.5 282 L 361.5 289 L 349.5 290 L 338.5 287 L 328 280 L 322 271.5 L 318 261.5 L 318 242.5 Q 321.6 229.6 330.5 222 L 340.5 216 L 348.5 214 Z " /><path fill="rgb(61,61,61)" stroke="rgb(61,61,61)" stroke-width="1" opacity="0.20392156862745098" d="M 230.5 0 L 236 0.5 L 230.5 1 L 230.5 0 Z " /><path fill="rgb(61,61,61)" stroke="rgb(61,61,61)" stroke-width="1" opacity="0.20392156862745098" d="M 256.5 0 L 263 1.5 L 260.5 2 L 256.5 1 L 256.5 0 Z " /><path fill="rgb(61,61,61)" stroke="rgb(61,61,61)" stroke-width="1" opacity="0.20392156862745098" d="M 226.5 1 L 229 1.5 L 226.5 2 L 226.5 1 Z " /><path fill="rgb(61,61,61)" stroke="rgb(61,61,61)" stroke-width="1" opacity="0.20392156862745098" d="M 212.5 8 L 211.5 10 L 210 9.5 L 212.5 8 Z " /><path fill="rgb(61,61,61)" stroke="rgb(61,61,61)" stroke-width="1" opacity="0.20392156862745098" d="M 205.5 12 L 207 12.5 L 204.5 14 L 205.5 12 Z " /><path fill="rgb(61,61,61)" stroke="rgb(61,61,61)" stroke-width="1" opacity="0.20392156862745098" d="M 285.5 13 L 286.5 15 L 285.5 13 Z " /><path fill="rgb(61,61,61)" stroke="rgb(61,61,61)" stroke-width="1" opacity="0.20392156862745098" d="M 202.5 14 L 201.5 16 L 199.5 17 L 200.5 15 L 202.5 14 Z " /><path fill="rgb(61,61,61)" stroke="rgb(61,61,61)" stroke-width="1" opacity="0.20392156862745098" d="M 193.5 19 L 192.5 21 L 193.5 19 Z " /><path fill="rgb(61,61,61)" stroke="rgb(61,61,61)" stroke-width="1" opacity="0.20392156862745098" d="M 296.5 20 L 299 21.5 L 297.5 21 L 296.5 20 Z " /><path fill="rgb(61,61,61)" stroke="rgb(61,61,61)" stroke-width="1" opacity="0.20392156862745098" d="M 190.5 21 L 189.5 23 L 188 22.5 L 190.5 21 Z " /><path fill="rgb(61,61,61)" stroke="rgb(61,61,61)" stroke-width="1" opacity="0.20392156862745098" d="M 302.5 23 L 303.5 25 L 302.5 23 Z " /><path fill="rgb(61,61,61)" stroke="rgb(61,61,61)" stroke-width="1" opacity="0.20392156862745098" d="M 183.5 25 L 182.5 27 L 183.5 25 Z " /><path fill="rgb(61,61,61)" stroke="rgb(61,61,61)" stroke-width="1" opacity="0.20392156862745098" d="M 307.5 26 L 311 28.5 L 309.5 28 L 307.5 26 Z " /><path fill="rgb(61,61,61)" stroke="rgb(61,61,61)" stroke-width="1" opacity="0.20392156862745098" d="M 176.5 29 L 175.5 31 L 176.5 29 Z " /><path fill="rgb(61,61,61)" stroke="rgb(61,61,61)" stroke-width="1" opacity="0.20392156862745098" d="M 314.5 30 L 318 32.5 L 316.5 32 L 314.5 30 Z " /><path fill="rgb(61,61,61)" stroke="rgb(61,61,61)" stroke-width="1" opacity="0.20392156862745098" d="M 321.5 34 L 322.5 36 L 321.5 34 Z " /><path fill="rgb(61,61,61)" stroke="rgb(61,61,61)" stroke-width="1" opacity="0.20392156862745098" d="M 326.5 37 L 330 39.5 L 328.5 39 L 326.5 37 Z " /><path fill="rgb(61,61,61)" stroke="rgb(61,61,61)" stroke-width="1" opacity="0.20392156862745098" d="M 151.5 43 L 152 45 L 148.5 46 L 149.5 44 L 151.5 43 Z " /><path fill="rgb(61,61,61)" stroke="rgb(61,61,61)" stroke-width="1" opacity="0.20392156862745098" d="M 337.5 43 L 343 46.5 L 341.5 46 Q 337.5 45.5 337.5 43 Z " /><path fill="rgb(61,61,61)" stroke="rgb(61,61,61)" stroke-width="1" opacity="0.20392156862745098" d="M 346.5 48 L 347.5 50 L 346.5 48 Z " /><path fill="rgb(61,61,61)" stroke="rgb(61,61,61)" stroke-width="1" opacity="0.20392156862745098" d="M 141.5 49 L 140.5 51 L 137.5 53 L 139.5 50 L 141.5 49 Z " /><path fill="rgb(61,61,61)" stroke="rgb(61,61,61)" stroke-width="1" opacity="0.20392156862745098" d="M 351.5 51 L 355 53.5 L 353.5 53 L 351.5 51 Z " /><path fill="rgb(61,61,61)" stroke="rgb(61,61,61)" stroke-width="1" opacity="0.20392156862745098" d="M 134.5 53 L 133.5 55 L 134.5 53 Z " /><path fill="rgb(61,61,61)" stroke="rgb(61,61,61)" stroke-width="1" opacity="0.20392156862745098" d="M 358.5 55 L 359.5 57 L 358.5 55 Z " /><path fill="rgb(61,61,61)" stroke="rgb(61,61,61)" stroke-width="1" opacity="0.20392156862745098" d="M 122.5 60 L 121.5 62 L 122.5 60 Z " /><path fill="rgb(61,61,61)" stroke="rgb(61,61,61)" stroke-width="1" opacity="0.20392156862745098" d="M 368.5 61 L 369.5 63 L 368.5 61 Z " /><path fill="rgb(61,61,61)" stroke="rgb(61,61,61)" stroke-width="1" opacity="0.20392156862745098" d="M 117.5 63 L 116.5 65 L 117.5 63 Z " /><path fill="rgb(61,61,61)" stroke="rgb(61,61,61)" stroke-width="1" opacity="0.20392156862745098" d="M 110.5 67 L 109.5 69 L 110.5 67 Z " /><path fill="rgb(61,61,61)" stroke="rgb(61,61,61)" stroke-width="1" opacity="0.20392156862745098" d="M 380.5 68 L 381.5 70 L 380.5 68 Z " /><path fill="rgb(61,61,61)" stroke="rgb(61,61,61)" stroke-width="1" opacity="0.20392156862745098" d="M 385.5 71 L 386.5 73 L 385.5 71 Z " /><path fill="rgb(61,61,61)" stroke="rgb(61,61,61)" stroke-width="1" opacity="0.20392156862745098" d="M 98.5 74 L 97.5 76 L 98.5 74 Z " /><path fill="rgb(61,61,61)" stroke="rgb(61,61,61)" stroke-width="1" opacity="0.20392156862745098" d="M 390.5 74 L 394 76.5 L 392.5 76 L 390.5 74 Z " /><path fill="rgb(61,61,61)" stroke="rgb(61,61,61)" stroke-width="1" opacity="0.20392156862745098" d="M 399.5 79 L 400.5 81 L 399.5 79 Z " /><path fill="rgb(61,61,61)" stroke="rgb(61,61,61)" stroke-width="1" opacity="0.20392156862745098" d="M 88.5 80 L 87.5 82 L 84.5 83 L 84.5 82 L 88.5 80 Z " /><path fill="rgb(61,61,61)" stroke="rgb(61,61,61)" stroke-width="1" opacity="0.20392156862745098" d="M 82.5 83 L 80.5 86 L 80 84 L 82.5 83 Z " /><path fill="rgb(61,61,61)" stroke="rgb(61,61,61)" stroke-width="1" opacity="0.20392156862745098" d="M 75.5 87 L 74.5 89 L 73 88.5 L 75.5 87 Z " /><path fill="rgb(61,61,61)" stroke="rgb(61,61,61)" stroke-width="1" opacity="0.20392156862745098" d="M 417.5 89 L 418.5 91 Q 415.7 91.7 417.5 89 Z " /><path fill="rgb(61,61,61)" stroke="rgb(61,61,61)" stroke-width="1" opacity="0.20392156862745098" d="M 422.5 92 L 423.5 94 L 422.5 92 Z " /><path fill="rgb(61,61,61)" stroke="rgb(61,61,61)" stroke-width="1" opacity="0.20392156862745098" d="M 65.5 93 L 67 93.5 L 63.5 95 L 63.5 94 L 65.5 93 Z " /><path fill="rgb(61,61,61)" stroke="rgb(61,61,61)" stroke-width="1" opacity="0.20392156862745098" d="M 427.5 95 L 431 97.5 L 429.5 97 L 427.5 95 Z " /><path fill="rgb(61,61,61)" stroke="rgb(61,61,61)" stroke-width="1" opacity="0.20392156862745098" d="M 434.5 99 L 435.5 101 L 434.5 99 Z " /><path fill="rgb(61,61,61)" stroke="rgb(61,61,61)" stroke-width="1" opacity="0.20392156862745098" d="M 444.5 105 L 445.5 107 L 444.5 105 Z " /><path fill="rgb(61,61,61)" stroke="rgb(61,61,61)" stroke-width="1" opacity="0.20392156862745098" d="M 448.5 108 L 453.5 114 L 448.5 108 Z " /><path fill="rgb(61,61,61)" stroke="rgb(61,61,61)" stroke-width="1" opacity="0.20392156862745098" d="M 34.5 115 L 33.5 117 L 34.5 115 Z " /><path fill="rgb(61,61,61)" stroke="rgb(61,61,61)" stroke-width="1" opacity="0.20392156862745098" d="M 464.5 130 L 466 133.5 L 465 133.5 L 464.5 130 Z " /><path fill="rgb(61,61,61)" stroke="rgb(61,61,61)" stroke-width="1" opacity="0.20392156862745098" d="M 467.5 138 L 468 140.5 L 467 140.5 L 467.5 138 Z " /><path fill="rgb(61,61,61)" stroke="rgb(61,61,61)" stroke-width="1" opacity="0.20392156862745098" d="M 468.5 142 L 469 145.5 L 468 145.5 L 468.5 142 Z " /><path fill="rgb(61,61,61)" stroke="rgb(61,61,61)" stroke-width="1" opacity="0.20392156862745098" d="M 20.5 144 L 21 151.5 L 20 151.5 L 20.5 144 Z " /><path fill="rgb(61,61,61)" stroke="rgb(61,61,61)" stroke-width="1" opacity="0.20392156862745098" d="M 360.5 188 L 363 188.5 L 360.5 189 L 360.5 188 Z " /><path fill="rgb(61,61,61)" stroke="rgb(61,61,61)" stroke-width="1" opacity="0.20392156862745098" d="M 322.5 194 L 321.5 196 L 311.5 202 L 313.5 199 L 322.5 194 Z " /><path fill="rgb(61,61,61)" stroke="rgb(61,61,61)" stroke-width="1" opacity="0.20392156862745098" d="M 152.5 195 L 155 196.5 L 153.5 196 L 152.5 195 Z " /><path fill="rgb(61,61,61)" stroke="rgb(61,61,61)" stroke-width="1" opacity="0.20392156862745098" d="M 255.5 196 L 256.5 198 Q 253.7 198.7 255.5 196 Z " /><path fill="rgb(61,61,61)" stroke="rgb(61,61,61)" stroke-width="1" opacity="0.20392156862745098" d="M 387.5 197 L 396 202.5 L 394.5 202 L 387.5 198 L 387.5 197 Z " /><path fill="rgb(61,61,61)" stroke="rgb(61,61,61)" stroke-width="1" opacity="0.20392156862745098" d="M 157.5 198 Q 159.8 197.3 159 199.5 L 157.5 198 Z " /><path fill="rgb(61,61,61)" stroke="rgb(61,61,61)" stroke-width="1" opacity="0.20392156862745098" d="M 258.5 198 L 259 200 L 264 203.5 Q 263.3 205.8 265.5 205 L 266.5 207 L 263 206 L 260.5 201 L 258 199.5 L 258.5 198 Z " /><path fill="rgb(61,61,61)" stroke="rgb(61,61,61)" stroke-width="1" opacity="0.20392156862745098" d="M 161.5 201 L 164.5 205 L 161.5 201 Z " /><path fill="rgb(61,61,61)" stroke="rgb(61,61,61)" stroke-width="1" opacity="0.20392156862745098" d="M 308 203 L 310 203.5 L 308 204.5 L 308 203 Z " /><path fill="rgb(61,61,61)" stroke="rgb(61,61,61)" stroke-width="1" opacity="0.20392156862745098" d="M 397.5 204 L 401.5 209 L 397.5 204 Z " /><path fill="rgb(61,61,61)" stroke="rgb(61,61,61)" stroke-width="1" opacity="0.20392156862745098" d="M 306.5 205 L 299.5 213 L 306.5 205 Z " /><path fill="rgb(61,61,61)" stroke="rgb(61,61,61)" stroke-width="1" opacity="0.20392156862745098" d="M 165.5 206 L 169 211.5 L 168 211.5 L 165.5 206 Z " /><path fill="rgb(61,61,61)" stroke="rgb(61,61,61)" stroke-width="1" opacity="0.20392156862745098" d="M 349.5 212 Q 357.1 210.5 356 214 L 353.5 213 L 350.5 214 L 348 213.5 L 349.5 212 Z " /><path fill="rgb(61,61,61)" stroke="rgb(61,61,61)" stroke-width="1" opacity="0.20392156862745098" d="M 116.5 213 L 130 213.5 L 116.5 214 L 116.5 213 Z " /><path fill="rgb(61,61,61)" stroke="rgb(61,61,61)" stroke-width="1" opacity="0.20392156862745098" d="M 131.5 213 Q 139.8 213.8 143 219.5 L 138.5 216 L 131.5 214 L 131.5 213 Z " /><path fill="rgb(61,61,61)" stroke="rgb(61,61,61)" stroke-width="1" opacity="0.20392156862745098" d="M 214 213 L 232 213.5 L 215 214 L 215 241.5 L 216 242.5 L 214 241.5 L 214 213 Z " /><path fill="rgb(61,61,61)" stroke="rgb(61,61,61)" stroke-width="1" opacity="0.20392156862745098" d="M 269.5 213 L 271 216.5 L 270 216.5 L 269.5 213 Z " /><path fill="rgb(61,61,61)" stroke="rgb(61,61,61)" stroke-width="1" opacity="0.20392156862745098" d="M 358.5 213 Q 362.9 211.5 362 214.5 L 360.5 214 Q 357.5 214.5 358.5 213 Z " /><path fill="rgb(61,61,61)" stroke="rgb(61,61,61)" stroke-width="1" opacity="0.20392156862745098" d="M 169.5 214 L 170.5 216 L 169.5 214 Z " /><path fill="rgb(61,61,61)" stroke="rgb(61,61,61)" stroke-width="1" opacity="0.20392156862745098" d="M 233.5 214 L 236.5 214 L 241 217.5 L 243 220.5 L 240 218.5 Q 240.8 216.3 238.5 217 L 233.5 215 L 233.5 214 Z " /><path fill="rgb(61,61,61)" stroke="rgb(61,61,61)" stroke-width="1" opacity="0.20392156862745098" d="M 340 214 L 344 214.5 L 340.5 216 L 340 214 Z " /><path fill="rgb(61,61,61)" stroke="rgb(61,61,61)" stroke-width="1" opacity="0.20392156862745098" d="M 364.5 214 L 367 215.5 L 364 216 L 364.5 214 Z " /><path fill="rgb(61,61,61)" stroke="rgb(61,61,61)" stroke-width="1" opacity="0.20392156862745098" d="M 297.5 215 L 296.5 217 L 297.5 215 Z " /><path fill="rgb(61,61,61)" stroke="rgb(61,61,61)" stroke-width="1" opacity="0.20392156862745098" d="M 407.5 215 L 408.5 217 L 407.5 215 Z " /><path fill="rgb(61,61,61)" stroke="rgb(61,61,61)" stroke-width="1" opacity="0.20392156862745098" d="M 170.5 217 Q 172.8 216.3 172 218.5 L 170.5 217 Z " /><path fill="rgb(61,61,61)" stroke="rgb(61,61,61)" stroke-width="1" opacity="0.20392156862745098" d="M 334.5 217 L 336 217.5 L 324 227.5 L 321.5 231 L 323 228.5 L 331.5 219 L 334.5 217 Z " /><path fill="rgb(61,61,61)" stroke="rgb(61,61,61)" stroke-width="1" opacity="0.20392156862745098" d="M 370.5 217 L 371.5 219 L 370.5 217 Z " /><path fill="rgb(61,61,61)" stroke="rgb(61,61,61)" stroke-width="1" opacity="0.20392156862745098" d="M 295.5 218 L 294.5 220 L 295.5 218 Z " /><path fill="rgb(61,61,61)" stroke="rgb(61,61,61)" stroke-width="1" opacity="0.20392156862745098" d="M 409.5 218 L 410.5 220 L 409.5 218 Z " /><path fill="rgb(61,61,61)" stroke="rgb(61,61,61)" stroke-width="1" opacity="0.20392156862745098" d="M 171.5 222 L 173 225.5 L 171 224.5 L 171.5 222 Z " /><path fill="rgb(61,61,61)" stroke="rgb(61,61,61)" stroke-width="1" opacity="0.20392156862745098" d="M 243.5 222 L 245 225.5 L 244.5 227 L 243.5 222 Z " /><path fill="rgb(61,61,61)" stroke="rgb(61,61,61)" stroke-width="1" opacity="0.20392156862745098" d="M 376.5 222 L 382.5 229 L 376.5 222 Z " /><path fill="rgb(61,61,61)" stroke="rgb(61,61,61)" stroke-width="1" opacity="0.20392156862745098" d="M 144.5 223 L 145 225.5 L 144 225.5 L 144.5 223 Z " /><path fill="rgb(61,61,61)" stroke="rgb(61,61,61)" stroke-width="1" opacity="0.20392156862745098" d="M 244.5 228 L 245 231.5 L 239.5 239 L 242 235.5 L 244.5 228 Z " /><path fill="rgb(61,61,61)" stroke="rgb(61,61,61)" stroke-width="1" opacity="0.20392156862745098" d="M 290.5 228 L 291 230.5 Q 288.2 233.5 289 239 L 287 238.5 L 290.5 228 Z " /><path fill="rgb(61,61,61)" stroke="rgb(61,61,61)" stroke-width="1" opacity="0.20392156862745098" d="M 171 230 Q 173.7 228.9 173 231.5 L 171 232.5 L 171 230 Z " /><path fill="rgb(61,61,61)" stroke="rgb(61,61,61)" stroke-width="1" opacity="0.20392156862745098" d="M 320.5 232 L 321 233.5 L 319 234.5 L 320.5 232 Z " /><path fill="rgb(61,61,61)" stroke="rgb(61,61,61)" stroke-width="1" opacity="0.20392156862745098" d="M 384.5 232 L 386 234.5 L 385 234.5 L 384.5 232 Z " /><path fill="rgb(61,61,61)" stroke="rgb(61,61,61)" stroke-width="1" opacity="0.20392156862745098" d="M 416.5 233 L 417 235.5 L 416 235.5 L 416.5 233 Z " /><path fill="rgb(61,61,61)" stroke="rgb(61,61,61)" stroke-width="1" opacity="0.20392156862745098" d="M 20.5 234 L 21 354.5 L 20 354.5 L 20.5 234 Z " /><path fill="rgb(61,61,61)" stroke="rgb(61,61,61)" stroke-width="1" opacity="0.20392156862745098" d="M 143.5 234 L 137.5 241 L 137 239 L 143.5 234 Z " /><path fill="rgb(61,61,61)" stroke="rgb(61,61,61)" stroke-width="1" opacity="0.20392156862745098" d="M 171.5 235 L 172 237.5 L 169.5 242 L 169 240.5 L 171.5 235 Z " /><path fill="rgb(61,61,61)" stroke="rgb(61,61,61)" stroke-width="1" opacity="0.20392156862745098" d="M 237.5 239 L 236.5 241 L 234.5 242 L 235.5 240 L 237.5 239 Z " /><path fill="rgb(61,61,61)" stroke="rgb(61,61,61)" stroke-width="1" opacity="0.20392156862745098" d="M 417.5 239 L 419 244.5 L 418 244.5 L 417.5 239 Z " /><path fill="rgb(61,61,61)" stroke="rgb(61,61,61)" stroke-width="1" opacity="0.20392156862745098" d="M 87.5 240 L 88 244.5 L 87 244.5 L 87.5 240 Z " /><path fill="rgb(61,61,61)" stroke="rgb(61,61,61)" stroke-width="1" opacity="0.20392156862745098" d="M 269.5 240 L 270 241.5 L 267.5 245 L 268 243.5 L 269.5 240 Z " /><path fill="rgb(61,61,61)" stroke="rgb(61,61,61)" stroke-width="1" opacity="0.20392156862745098" d="M 287.5 240 L 288 246 L 286 245.5 L 287.5 240 Z " /><path fill="rgb(61,61,61)" stroke="rgb(61,61,61)" stroke-width="1" opacity="0.20392156862745098" d="M 131.5 241 L 133 241.5 L 129.5 243 L 129.5 242 L 131.5 241 Z " /><path fill="rgb(61,61,61)" stroke="rgb(61,61,61)" stroke-width="1" opacity="0.20392156862745098" d="M 231.5 241 L 233 241.5 L 230.5 243 L 231.5 241 Z " /><path fill="rgb(61,61,61)" stroke="rgb(61,61,61)" stroke-width="1" opacity="0.20392156862745098" d="M 316.5 243 L 317 245.5 L 316 245.5 L 316.5 243 Z " /><path fill="rgb(61,61,61)" stroke="rgb(61,61,61)" stroke-width="1" opacity="0.20392156862745098" d="M 266.5 246 L 266 247.5 L 264.5 250 L 265 248.5 L 266.5 246 Z " /><path fill="rgb(61,61,61)" stroke="rgb(61,61,61)" stroke-width="1" opacity="0.20392156862745098" d="M 166.5 248 L 163 252.5 Q 163.8 254.8 161.5 254 L 157 257.5 Q 156.3 255.3 158.5 256 L 166.5 248 Z " /><path fill="rgb(61,61,61)" stroke="rgb(61,61,61)" stroke-width="1" opacity="0.20392156862745098" d="M 418.5 248 L 419 255.5 L 418 255.5 L 418.5 248 Z " /><path fill="rgb(61,61,61)" stroke="rgb(61,61,61)" stroke-width="1" opacity="0.20392156862745098" d="M 389.5 249 L 390 254.5 L 389 254.5 L 389.5 249 Z " /><path fill="rgb(61,61,61)" stroke="rgb(61,61,61)" stroke-width="1" opacity="0.20392156862745098" d="M 87.5 253 L 88 259.5 L 87 259.5 L 87.5 253 Z " /><path fill="rgb(61,61,61)" stroke="rgb(61,61,61)" stroke-width="1" opacity="0.20392156862745098" d="M 258.5 254 L 260 254.5 L 254 258 L 261 269.5 L 259 268.5 L 254 261.5 L 253 257 L 258.5 254 Z " /><path fill="rgb(61,61,61)" stroke="rgb(61,61,61)" stroke-width="1" opacity="0.20392156862745098" d="M 286 257 Q 289 255.8 288 259.5 L 286 258.5 L 286 257 Z " /><path fill="rgb(61,61,61)" stroke="rgb(61,61,61)" stroke-width="1" opacity="0.20392156862745098" d="M 154.5 258 L 152.5 261 L 147.5 263 L 148.5 261 L 154.5 258 Z " /><path fill="rgb(61,61,61)" stroke="rgb(61,61,61)" stroke-width="1" opacity="0.20392156862745098" d="M 316.5 258 L 317 260.5 L 316 260.5 L 316.5 258 Z " /><path fill="rgb(61,61,61)" stroke="rgb(61,61,61)" stroke-width="1" opacity="0.20392156862745098" d="M 417.5 261 L 418 265.5 L 417 265.5 L 417.5 261 Z " /><path fill="rgb(61,61,61)" stroke="rgb(61,61,61)" stroke-width="1" opacity="0.20392156862745098" d="M 145.5 262 L 146 264 L 143 263.5 L 145.5 262 Z " /><path fill="rgb(61,61,61)" stroke="rgb(61,61,61)" stroke-width="1" opacity="0.20392156862745098" d="M 141.5 263 L 140.5 265 L 139 264.5 L 141.5 263 Z " /><path fill="rgb(61,61,61)" stroke="rgb(61,61,61)" stroke-width="1" opacity="0.20392156862745098" d="M 133.5 264 L 137 264.5 L 133.5 265 L 133.5 264 Z " /><path fill="rgb(61,61,61)" stroke="rgb(61,61,61)" stroke-width="1" opacity="0.20392156862745098" d="M 215.5 264 L 217 264.5 L 215 265 L 214.5 312 L 214 265.5 L 215.5 264 Z " /><path fill="rgb(61,61,61)" stroke="rgb(61,61,61)" stroke-width="1" opacity="0.20392156862745098" d="M 219.5 264 Q 226.3 262.3 228 265.5 L 232 271.5 L 229 269.5 L 225.5 265 L 219.5 265 L 219.5 264 Z " /><path fill="rgb(61,61,61)" stroke="rgb(61,61,61)" stroke-width="1" opacity="0.20392156862745098" d="M 288.5 265 L 292 278.5 L 291 278.5 L 288 270.5 L 288 268.5 L 288.5 265 Z " /><path fill="rgb(61,61,61)" stroke="rgb(61,61,61)" stroke-width="1" opacity="0.20392156862745098" d="M 319.5 269 L 321 271.5 L 320 271.5 L 319.5 269 Z " /><path fill="rgb(61,61,61)" stroke="rgb(61,61,61)" stroke-width="1" opacity="0.20392156862745098" d="M 232.5 273 L 237.5 280 L 239 279.5 L 239 281.5 L 248 294.5 L 246 295 L 232.5 273 Z " /><path fill="rgb(61,61,61)" stroke="rgb(61,61,61)" stroke-width="1" opacity="0.20392156862745098" d="M 321.5 273 L 322.5 275 L 321.5 273 Z " /><path fill="rgb(61,61,61)" stroke="rgb(61,61,61)" stroke-width="1" opacity="0.20392156862745098" d="M 264.5 274 L 267 277.5 L 264 275.5 L 264.5 274 Z " /><path fill="rgb(61,61,61)" stroke="rgb(61,61,61)" stroke-width="1" opacity="0.20392156862745098" d="M 381.5 276 L 377.5 281 L 381.5 276 Z " /><path fill="rgb(61,61,61)" stroke="rgb(61,61,61)" stroke-width="1" opacity="0.20392156862745098" d="M 324.5 277 L 335 285.5 L 333.5 286 L 324.5 277 Z " /><path fill="rgb(61,61,61)" stroke="rgb(61,61,61)" stroke-width="1" opacity="0.20392156862745098" d="M 269.5 281 L 276 290.5 L 274 289.5 L 269 282.5 L 269.5 281 Z " /><path fill="rgb(61,61,61)" stroke="rgb(61,61,61)" stroke-width="1" opacity="0.20392156862745098" d="M 412.5 281 L 411.5 283 L 412.5 281 Z " /><path fill="rgb(61,61,61)" stroke="rgb(61,61,61)" stroke-width="1" opacity="0.20392156862745098" d="M 375.5 282 L 373.5 285 L 373 283 L 375.5 282 Z " /><path fill="rgb(61,61,61)" stroke="rgb(61,61,61)" stroke-width="1" opacity="0.20392156862745098" d="M 294.5 284 L 295.5 286 L 294.5 284 Z " /><path fill="rgb(61,61,61)" stroke="rgb(61,61,61)" stroke-width="1" opacity="0.20392156862745098" d="M 370.5 285 L 371 287 L 360.5 291 L 354.5 291 L 354.5 290 Q 365.3 290.3 370.5 285 Z " /><path fill="rgb(61,61,61)" stroke="rgb(61,61,61)" stroke-width="1" opacity="0.20392156862745098" d="M 409.5 286 L 408.5 288 L 409.5 286 Z " /><path fill="rgb(61,61,61)" stroke="rgb(61,61,61)" stroke-width="1" opacity="0.20392156862745098" d="M 296.5 287 L 297.5 289 L 296.5 287 Z " /><path fill="rgb(61,61,61)" stroke="rgb(61,61,61)" stroke-width="1" opacity="0.20392156862745098" d="M 338.5 287 L 342 289.5 L 340.5 289 Q 336.5 290 338.5 287 Z " /><path fill="rgb(61,61,61)" stroke="rgb(61,61,61)" stroke-width="1" opacity="0.20392156862745098" d="M 343.5 289 L 351 290.5 L 344.5 291 L 343.5 289 Z " /><path fill="rgb(61,61,61)" stroke="rgb(61,61,61)" stroke-width="1" opacity="0.20392156862745098" d="M 407.5 289 L 401 296.5 Q 401.8 298.8 399.5 298 L 407.5 289 Z " /><path fill="rgb(61,61,61)" stroke="rgb(61,61,61)" stroke-width="1" opacity="0.20392156862745098" d="M 278.5 294 L 279.5 296 L 278.5 294 Z " /><path fill="rgb(61,61,61)" stroke="rgb(61,61,61)" stroke-width="1" opacity="0.20392156862745098" d="M 304.5 296 L 305.5 298 L 304.5 296 Z " /><path fill="rgb(61,61,61)" stroke="rgb(61,61,61)" stroke-width="1" opacity="0.20392156862745098" d="M 250.5 299 L 253 302.5 L 250 300.5 L 250.5 299 Z " /><path fill="rgb(61,61,61)" stroke="rgb(61,61,61)" stroke-width="1" opacity="0.20392156862745098" d="M 397.5 299 L 394.5 303 L 391.5 305 L 393.5 302 L 397.5 299 Z " /><path fill="rgb(61,61,61)" stroke="rgb(61,61,61)" stroke-width="1" opacity="0.20392156862745098" d="M 308.5 300 L 312 302.5 L 309.5 301 L 308.5 300 Z " /><path fill="rgb(61,61,61)" stroke="rgb(61,61,61)" stroke-width="1" opacity="0.20392156862745098" d="M 253.5 304 L 254.5 306 L 253.5 304 Z " /><path fill="rgb(61,61,61)" stroke="rgb(61,61,61)" stroke-width="1" opacity="0.20392156862745098" d="M 315.5 305 L 316.5 307 L 315.5 305 Z " /><path fill="rgb(61,61,61)" stroke="rgb(61,61,61)" stroke-width="1" opacity="0.20392156862745098" d="M 389.5 305 L 387.5 308 L 386 307.5 L 389.5 305 Z " /><path fill="rgb(61,61,61)" stroke="rgb(61,61,61)" stroke-width="1" opacity="0.20392156862745098" d="M 255.5 307 L 256.5 309 L 255.5 307 Z " /><path fill="rgb(61,61,61)" stroke="rgb(61,61,61)" stroke-width="1" opacity="0.20392156862745098" d="M 105.5 313 L 112 313.5 L 105.5 314 L 105.5 313 Z " /><path fill="rgb(61,61,61)" stroke="rgb(61,61,61)" stroke-width="1" opacity="0.20392156862745098" d="M 341.5 315 L 344 315.5 L 341.5 316 L 341.5 315 Z " /><path fill="rgb(61,61,61)" stroke="rgb(61,61,61)" stroke-width="1" opacity="0.20392156862745098" d="M 361.5 315 L 364 315.5 L 361.5 316 L 361.5 315 Z " /><path fill="rgb(61,61,61)" stroke="rgb(61,61,61)" stroke-width="1" opacity="0.20392156862745098" d="M 468.5 353 L 469 356.5 L 468 356.5 L 468.5 353 Z " /><path fill="rgb(61,61,61)" stroke="rgb(61,61,61)" stroke-width="1" opacity="0.20392156862745098" d="M 21.5 356 L 22 359.5 L 21 359.5 L 21.5 356 Z " /><path fill="rgb(61,61,61)" stroke="rgb(61,61,61)" stroke-width="1" opacity="0.20392156862745098" d="M 457.5 380 L 455.5 383 L 457.5 380 Z " /><path fill="rgb(61,61,61)" stroke="rgb(61,61,61)" stroke-width="1" opacity="0.20392156862745098" d="M 454.5 384 L 452.5 387 L 454.5 384 Z " /><path fill="rgb(61,61,61)" stroke="rgb(61,61,61)" stroke-width="1" opacity="0.20392156862745098" d="M 449.5 389 L 448.5 391 L 449.5 389 Z " /><path fill="rgb(61,61,61)" stroke="rgb(61,61,61)" stroke-width="1" opacity="0.20392156862745098" d="M 41.5 390 L 43.5 393 L 41.5 390 Z " /><path fill="rgb(61,61,61)" stroke="rgb(61,61,61)" stroke-width="1" opacity="0.20392156862745098" d="M 435.5 398 L 437 398.5 L 432.5 401 L 433.5 399 L 435.5 398 Z " /><path fill="rgb(61,61,61)" stroke="rgb(61,61,61)" stroke-width="1" opacity="0.20392156862745098" d="M 66.5 406 L 69 407.5 L 67.5 407 L 66.5 406 Z " /><path fill="rgb(61,61,61)" stroke="rgb(61,61,61)" stroke-width="1" opacity="0.20392156862745098" d="M 72.5 409 L 73.5 411 L 72.5 409 Z " /><path fill="rgb(61,61,61)" stroke="rgb(61,61,61)" stroke-width="1" opacity="0.20392156862745098" d="M 414.5 410 L 412.5 413 L 414.5 410 Z " /><path fill="rgb(61,61,61)" stroke="rgb(61,61,61)" stroke-width="1" opacity="0.20392156862745098" d="M 77.5 412 Q 79.8 411.3 79 413.5 L 77.5 412 Z " /><path fill="rgb(61,61,61)" stroke="rgb(61,61,61)" stroke-width="1" opacity="0.20392156862745098" d="M 80.5 414 L 83 415.5 L 81.5 415 L 80.5 414 Z " /><path fill="rgb(61,61,61)" stroke="rgb(61,61,61)" stroke-width="1" opacity="0.20392156862745098" d="M 408.5 414 L 407.5 416 L 405.5 417 L 406.5 415 L 408.5 414 Z " /><path fill="rgb(61,61,61)" stroke="rgb(61,61,61)" stroke-width="1" opacity="0.20392156862745098" d="M 395.5 421 L 394.5 423 L 395.5 421 Z " /><path fill="rgb(61,61,61)" stroke="rgb(61,61,61)" stroke-width="1" opacity="0.20392156862745098" d="M 97.5 423 L 98.5 425 L 97.5 423 Z " /><path fill="rgb(61,61,61)" stroke="rgb(61,61,61)" stroke-width="1" opacity="0.20392156862745098" d="M 109.5 430 L 110.5 432 L 109.5 430 Z " /><path fill="rgb(61,61,61)" stroke="rgb(61,61,61)" stroke-width="1" opacity="0.20392156862745098" d="M 126.5 440 L 127.5 442 L 126.5 440 Z " /><path fill="rgb(61,61,61)" stroke="rgb(61,61,61)" stroke-width="1" opacity="0.20392156862745098" d="M 131.5 443 L 134 444.5 L 132.5 445 L 131.5 443 Z " /><path fill="rgb(61,61,61)" stroke="rgb(61,61,61)" stroke-width="1" opacity="0.20392156862745098" d="M 354.5 445 L 353.5 447 L 351.5 448 L 352.5 446 L 354.5 445 Z " /><path fill="rgb(61,61,61)" stroke="rgb(61,61,61)" stroke-width="1" opacity="0.20392156862745098" d="M 138.5 447 L 139.5 449 L 138.5 447 Z " /><path fill="rgb(61,61,61)" stroke="rgb(61,61,61)" stroke-width="1" opacity="0.20392156862745098" d="M 143.5 450 L 144.5 452 L 143.5 450 Z " /><path fill="rgb(61,61,61)" stroke="rgb(61,61,61)" stroke-width="1" opacity="0.20392156862745098" d="M 345.5 450 L 347 450.5 L 344.5 452 L 345.5 450 Z " /><path fill="rgb(61,61,61)" stroke="rgb(61,61,61)" stroke-width="1" opacity="0.20392156862745098" d="M 342.5 452 L 341.5 454 L 342.5 452 Z " /><path fill="rgb(61,61,61)" stroke="rgb(61,61,61)" stroke-width="1" opacity="0.20392156862745098" d="M 168.5 464 L 169.5 466 L 168.5 464 Z " /><path fill="rgb(61,61,61)" stroke="rgb(61,61,61)" stroke-width="1" opacity="0.20392156862745098" d="M 180.5 471 L 181.5 473 L 180.5 471 Z " /><path fill="rgb(61,61,61)" stroke="rgb(61,61,61)" stroke-width="1" opacity="0.20392156862745098" d="M 185.5 474 L 186.5 476 L 185.5 474 Z " /><path fill="rgb(61,61,61)" stroke="rgb(61,61,61)" stroke-width="1" opacity="0.20392156862745098" d="M 197.5 481 L 198.5 483 L 197.5 481 Z " /><path fill="rgb(61,61,61)" stroke="rgb(61,61,61)" stroke-width="1" opacity="0.20392156862745098" d="M 200.5 483 L 203 484.5 L 201.5 484 L 200.5 483 Z " /><path fill="rgb(61,61,61)" stroke="rgb(61,61,61)" stroke-width="1" opacity="0.20392156862745098" d="M 204.5 485 L 207 486.5 L 205.5 487 L 204.5 485 Z " /><path fill="rgb(61,61,61)" stroke="rgb(61,61,61)" stroke-width="1" opacity="0.20392156862745098" d="M 283.5 486 L 282.5 488 L 283.5 486 Z " /><path fill="rgb(61,61,61)" stroke="rgb(61,61,61)" stroke-width="1" opacity="0.20392156862745098" d="M 271.5 493 L 270.5 495 L 271.5 493 Z " /><path fill="rgb(61,61,61)" stroke="rgb(61,61,61)" stroke-width="1" opacity="0.20392156862745098" d="M 229.5 498 L 241 499.5 L 234.5 500 L 229.5 499 L 229.5 498 Z " /><path fill="rgb(61,61,61)" stroke="rgb(61,61,61)" stroke-width="1" opacity="0.20392156862745098" d="M 256.5 498 L 260 498.5 L 256.5 499 L 256.5 498 Z " /><path fill="rgb(61,61,61)" stroke="rgb(61,61,61)" stroke-width="1" opacity="0.20392156862745098" d="M 246.5 499 L 255 499.5 L 246.5 500 L 246.5 499 Z " /><path fill="rgb(0,0,0)" stroke="rgb(0,0,0)" stroke-width="1" opacity="0" d="M 0 0 L 229.5 0 L 231 1.5 L 229.5 2 L 226.5 1 L 226.5 3 L 223.5 2 L 223.5 4 L 212.5 10 L 210.5 9 L 210.5 11 L 204 13.5 L 203.5 15 L 201.5 15 L 199 16.5 L 198.5 18 L 197 17.5 L 196.5 19 L 195 18.5 L 194.5 20 Q 193.3 17.8 192 20.5 L 191.5 22 L 189.5 22 Q 186.9 21.3 188 24 L 185 24 L 185 25.5 Q 183.3 23.9 181.5 27 L 178 28 L 177.5 30 Q 176 27.5 174.5 31 L 171 32 Q 172.3 35 168.5 34 L 166 35 Q 167.3 38 163.5 37 L 159 39 L 159 41 L 155 41 L 155 42.5 L 152.5 44 L 150.5 44 L 148 45.5 L 146.5 48 L 142.5 50 L 140.5 50 L 139 50.5 L 139.5 52 L 138.5 51 Q 135.8 56.4 133 54.5 Q 133.8 56.8 131.5 56 L 127.5 59 L 126 58.5 Q 126.8 60.8 124.5 60 L 121 61.5 L 120.5 63 L 119 62.5 L 118.5 64 Q 117 61.5 115.5 65 Q 113.3 64.3 114 66.5 L 112 66.5 L 111.5 68 Q 110 65.5 108.5 69 Q 106.3 68.3 107 70.5 L 105 70.5 Q 105.8 73.1 102.5 72 L 100 73 L 99.5 75 Q 98 72.5 96.5 76 Q 94.3 75.3 95 77.5 L 93 77.5 Q 93.8 80.1 90.5 79 L 84 82 L 82.5 85 L 80 84 L 80 86 Q 76.2 84.5 77 87.5 Q 75.8 90.2 74.5 88 L 73 88.5 L 73.5 90 Q 69.1 88.5 70 91.5 L 63 94 L 61.5 97 L 59.5 98 L 58 97.5 L 56.5 100 L 54.5 101 L 53 100.5 L 52.5 102 L 51 101.5 L 49.5 104 L 47.5 105 L 46 104.5 L 44.5 107 Q 41.2 105.9 42 108.5 L 37 112 L 35.5 115 L 33 116.5 Q 34 120.3 31 119 L 31 121.5 L 29 125 L 27 125.5 L 27.5 127 L 26 127.5 L 26.5 129 L 25 129.5 L 25.5 131 L 24 131.5 L 24.5 133 L 23 133.5 L 24 136 L 22 136.5 L 23 139 Q 20.3 137.9 21 140.5 L 22 142.5 Q 18.3 144.3 20 151.5 L 21 152.5 L 21 233.5 L 20 234.5 L 20 354.5 L 21 360 Q 23.7 358.9 23 361.5 L 22 362.5 Q 25.1 364.3 23.5 366 Q 26.1 365.2 25 368.5 L 25.5 371 L 27 371.5 L 26.5 373 L 29 374.5 Q 34.4 385.6 43.5 393 Q 45 390.5 46.5 394 L 56 399.5 L 56.5 401 L 58 400.5 L 58.5 402 L 60.5 402 L 67 405.5 L 66.5 407 L 68.5 406 L 72 408 L 72.5 410 Q 73.8 407.8 75 410.5 L 75.5 412 L 77 411.5 L 78.5 414 L 80.5 413 L 80.5 415 L 82.5 416 L 84 415.5 L 84.5 417 L 86 416.5 Q 85.2 419.1 88.5 418 L 91 419 L 91.5 421 L 93 420.5 Q 92.3 422.8 94.5 422 L 98.5 425 L 100 424.5 L 100 426 Q 103.7 424.5 103 427.5 L 105 427.5 Q 104.2 430.1 107.5 429 Q 109.8 433.2 112 431.5 L 112 433 Q 115.7 431.5 115 434.5 L 117 434.5 L 117.5 436 L 119 435.5 Q 118.2 438.1 121.5 437 L 126 439 L 127.5 442 L 129.5 442 Q 131.8 441.3 131 443.5 L 133 443.5 L 132.5 445 L 138 446 L 138.5 448 Q 140 445.5 141.5 449 Q 143.8 448.3 143 450.5 L 146 451.5 L 146.5 453 L 148.5 453 L 153 455.5 L 153.5 457 L 155 456.5 Q 154.2 459.1 157.5 458 Q 159.4 461.6 164 461 Q 162.8 464 166.5 463 L 172.5 467 L 181.5 473 L 182.5 472 L 186.5 476 L 188.5 476 Q 191.1 475.3 190 478 L 193 478 L 193 479.5 L 195.5 480 Q 197.8 479.3 197 481.5 L 200 482.5 Q 199.3 484.8 201.5 484 L 204 484.5 L 205.5 487 Q 210.6 486.4 212 489.5 L 212.5 491 L 214.5 491 L 219 493.5 L 219.5 495 L 221.5 495 L 227 496 L 227.5 498 L 229.5 497 L 229.5 499 L 235.5 498 L 235.5 499 L 233.5 500 L 0 500 L 0 0 Z " /><path fill="rgb(0,0,0)" stroke="rgb(0,0,0)" stroke-width="1" opacity="0" d="M 253.5 0 L 256 0.5 L 253.5 1 L 253.5 0 Z " /><path fill="rgb(0,0,0)" stroke="rgb(0,0,0)" stroke-width="1" opacity="0" d="M 260.5 0 L 500 0 L 500 500 L 255.5 500 L 254 498.5 L 255.5 498 L 259.5 499 L 259.5 497 L 261.5 498 L 264.5 496 L 266 496.5 Q 265.3 494.3 267.5 495 L 270.5 493 L 272 493.5 Q 271.3 491.3 273.5 492 L 277.5 489 L 279 489.5 L 279.5 488 L 281 488.5 L 282.5 486 L 284 486.5 Q 283.3 484.3 285.5 485 L 288 484.5 L 289.5 482 L 291.5 481 L 293 481.5 L 293 480 Q 296.8 481.5 296 478.5 L 298 478.5 Q 297.2 475.9 300.5 477 L 303 476 Q 301.9 473.3 304.5 474 L 310 472 Q 308.8 469 312.5 470 Q 314.7 465.7 317 467.5 Q 316.3 465.3 318.5 466 L 322.5 463 L 324 463.5 Q 323.3 461.3 325.5 462 L 331 460 L 331.5 458 L 333 458.5 L 334.5 456 L 340 455 L 341.5 452 L 343 452.5 L 343.5 451 L 345.5 451 L 347 450.5 L 346.5 449 L 350.5 447 L 352.5 447 L 354 446.5 L 353.5 445 L 355 445.5 Q 354.3 443.3 356.5 444 L 364.5 439 L 367 439 L 367.5 437 L 369 437.5 Q 368.2 434.9 371.5 436 Q 374.6 431.4 381 431 Q 379.9 428.3 382.5 429 L 386 428 L 386.5 426 L 388 426.5 Q 387.2 423.9 390.5 425 L 393 424 L 393.5 422 Q 395 424.5 396.5 421 L 400 420 L 400.5 418 L 402 418.5 Q 401.3 416.3 403.5 417 Q 405 413.5 406.5 416 L 408 415.5 L 407.5 414 L 409 414.5 L 409.5 413 L 411 413.5 L 412.5 411 L 413.5 412 L 417.5 408 L 423 407 L 424.5 404 L 426.5 403 L 428 403.5 L 428.5 402 L 430 402.5 L 431.5 400 L 433.5 400 L 437 399 L 438.5 396 L 440.5 395 L 442 395.5 L 443.5 393 L 445 393.5 Q 444.3 391.3 446.5 392 L 450 389.5 L 451.5 387 L 455 384.5 L 454.5 383 L 458 380.5 L 460 375 L 462 374.5 L 461.5 373 L 463 372.5 L 462.5 371 L 464 370.5 L 463.5 369 L 465 368.5 L 464.5 367 L 466 366.5 Q 463.5 365 467 363.5 L 468 359.5 Q 465.5 358 469 356.5 L 468 352.5 L 469 351.5 L 469 142.5 L 465 130 L 463 129.5 L 463.5 128 L 462 127.5 L 462.5 126 L 461 126 Q 462.5 122.2 459.5 123 L 459.5 121 L 457 119.5 L 457.5 118 L 454 115.5 L 454 113.5 L 448.5 108 Q 447.2 110.3 446 107.5 L 444.5 105 L 443 105.5 L 443 104 Q 439.3 105.5 440 102.5 L 438 102.5 L 437.5 101 L 436 101.5 L 434.5 99 L 433 99.5 L 432.5 98 L 431 98.5 L 430.5 97 L 429 97.5 L 429.5 96 L 427.5 95 L 426 95.5 L 425.5 94 L 424 94.5 L 423.5 93 Q 422.2 95.3 421 92.5 L 420.5 91 L 419 91.5 L 417.5 89 L 415 90 Q 416.3 87 412.5 88 L 409 85.5 L 408.5 84 L 407 84.5 L 406.5 83 L 405 83.5 L 404.5 82 L 403.5 83 Q 400.8 77.6 398 79.5 Q 398.8 77.3 396.5 78 L 380.5 68 L 379 68.5 Q 379.8 65.9 376.5 67 L 374 66 L 373.5 64 L 372.5 65 L 368.5 61 L 366.5 61 L 364 59.5 L 363.5 58 L 362 58.5 L 361.5 57 L 360 57.5 L 359.5 56 Q 358.3 58.3 357 55.5 L 356.5 54 L 355 54.5 L 354.5 53 L 353 53.5 L 353.5 52 L 351.5 53 L 349.5 50 L 348 50.5 L 347.5 49 L 345.5 49 L 343 47.5 L 342.5 46 L 341 46.5 L 341.5 45 L 339.5 46 L 339.5 44 L 337.5 43 L 336 43.5 L 335.5 42 L 334 42.5 L 333.5 41 L 332.5 42 L 328.5 38 L 321.5 34 L 320 34.5 Q 320.8 32.3 318.5 33 L 314.5 30 L 313 30.5 Q 313.8 28.3 311.5 29 L 302.5 23 L 301 23.5 Q 301.8 21.3 299.5 22 L 293 18.5 Q 293.9 15.5 289.5 17 L 287 16 L 285.5 13 L 283.5 13 L 279 10.5 L 278.5 9 L 276.5 9 L 268 4.5 L 268.5 3 L 265.5 4 L 265.5 2 L 262.5 3 L 262.5 1 L 259.5 2 L 260.5 0 Z " /><path fill="rgb(0,0,0)" stroke="rgb(0,0,0)" stroke-width="1" opacity="0" d="M 347.5 187 L 357.5 187 L 362.5 189 L 365.5 188 L 368.5 190 L 370.5 190 L 372.5 191 L 374 190.5 L 374.5 192 L 377 191 L 377.5 193 L 380 192 L 380.5 194 L 382 193.5 L 382.5 195 L 384.5 195 L 388 196.5 L 387.5 198 L 392.5 201 L 394 200.5 L 393.5 202 L 397 203 L 397.5 205 L 398.5 204 L 403 208.5 L 405 213 Q 408 211.8 407 215.5 L 415 227.5 L 415 229.5 L 417 232.5 L 416 236 L 418 236.5 L 417 239.5 L 417.5 243 L 418.5 241 L 419 242.5 L 418 244.5 L 418 248.5 Q 416.3 254.8 419 256.5 L 419 258.5 L 418.5 263 L 417.5 261 L 417 265.5 L 418 268 L 416 268.5 L 417 271.5 L 413 279.5 L 411 282.5 L 411.5 284 Q 409.3 283.3 410 285.5 L 403 293.5 Q 405.8 295.3 401.5 297 Q 400.3 294.8 399 297.5 L 399.5 299 L 393 302.5 L 393.5 304 Q 392.3 301.8 391 304.5 L 390.5 306 L 388.5 306 L 386 307.5 Q 386.8 309.8 384.5 309 L 382 309.5 L 381.5 311 L 380 310.5 L 379.5 312 L 377 311 L 376.5 313 L 372.5 313 L 369.5 315 L 367.5 314 L 364.5 316 L 361.5 315 Q 357.1 318.1 348.5 317 L 341.5 315 L 339.5 316 L 336.5 314 L 334.5 314 Q 330.1 315.5 331 312.5 L 329.5 313 L 320 308.5 Q 320.8 305.9 317.5 307 L 312 303.5 L 311.5 302 Q 310.3 304.3 309 301.5 L 309.5 300 L 306 298.5 L 304.5 296 L 302 294.5 Q 302.7 291.9 300 293 L 300 291 L 298 291 L 298 288.5 L 292 279.5 L 289.5 269 L 288 269.5 L 289 265.5 L 287 265.5 L 288 261.5 L 286.5 259 L 288 259.5 L 288 257 Q 285.3 258.1 286 255.5 L 286 253.5 L 287 249.5 L 286.5 246 Q 289.3 246.6 288 240.5 L 287.5 239 Q 290.9 239.9 289 234.5 L 288.5 233 L 290 233.5 L 289 230.5 L 291 230.5 L 290 227.5 L 292 226.5 Q 289.5 225 293 223.5 L 298 215.5 L 298 213 L 307 205.5 L 307.5 204 Q 308.8 206.3 310 203.5 L 309.5 202 L 313.5 201 L 320 196.5 L 319.5 195 L 321.5 196 L 321.5 194 L 323 194.5 L 323.5 193 L 326 194 Q 324.9 191.3 327.5 192 L 333.5 190 L 335.5 189 L 337.5 190 Q 338.3 187.3 342.5 188 L 344.5 189 L 347.5 187 Z M 350 212 L 347 214 L 345 214 Q 339 212 340 216 Q 339 218 338 216 L 335 217 L 335 219 L 334 218 L 332 219 L 332 221 L 331 220 L 323 229 Q 320 230 322 232 Q 319 231 320 234 L 320 236 L 318 236 L 317 241 Q 320 242 316 244 L 317 247 L 316 249 Q 315 254 317 256 L 316 261 Q 319 262 317 264 L 318 266 Q 317 269 320 268 L 320 271 Q 319 273 322 272 L 321 274 L 324 275 Q 326 276 324 278 L 330 283 L 331 282 L 330 284 L 338 288 Q 337 290 341 289 L 342 288 L 345 291 Q 350 293 352 290 L 355 291 L 361 291 L 367 289 L 367 287 L 369 288 L 368 287 L 370 287 Q 372 288 371 286 Q 372 283 374 285 L 376 281 L 382 277 Q 381 273 384 274 L 388 265 L 388 261 L 390 255 L 389 246 L 389 244 L 388 241 L 388 239 L 384 232 Q 385 229 383 230 L 383 229 L 376 222 L 374 220 L 373 220 L 372 219 Q 371 216 370 218 L 369 217 L 367 217 Q 368 214 366 215 L 364 215 Q 361 216 362 213 L 358 214 L 356 214 L 356 212 L 350 212 Z " /><path fill="rgb(0,0,0)" stroke="rgb(0,0,0)" stroke-width="1" opacity="0" d="M 88.5 190 L 138.5 190 L 139 191.5 L 140.5 191 Q 144.9 189.5 144 192.5 L 145.5 192 L 150 193 L 150.5 195 L 152 194.5 Q 151.3 196.8 153.5 196 L 157 197.5 L 158.5 200 Q 159.8 197.7 161 200.5 L 164.5 205 L 167 206.5 L 167 208.5 L 168 212 Q 170.7 210.9 170 213.5 L 170 217.5 L 172 219.5 L 173 224.5 L 172 227.5 L 173 229.5 L 171 230 L 171.5 233 L 173 232.5 L 169 241.5 L 170 243.5 L 158.5 256 Q 156.3 255.3 157 257.5 L 154.5 260 L 152.5 260 L 146.5 263 L 144.5 263 L 142.5 264 L 140.5 264 L 137.5 265 L 133.5 264 L 132.5 265 L 118.5 265 L 116.5 264 L 116 266.5 L 116 313.5 L 112.5 314 Q 111 311.5 105.5 313 L 104.5 314 L 88.5 314 Q 85.5 312.5 87 306.5 L 88 302.5 L 87 301.5 L 87 260.5 Q 89.5 259 88 253.5 Q 85.3 251.8 87 245.5 L 88 240.5 L 87 239.5 L 87 208.5 L 88 205.5 L 88 192.5 L 87 191.5 L 88.5 190 Z M 116 213 L 117 243 L 117 241 L 120 242 L 129 242 L 130 241 L 133 242 L 135 242 L 135 240 L 138 241 L 144 235 L 143 234 L 145 231 L 144 228 L 145 226 Q 146 222 144 223 L 144 222 L 143 221 L 143 220 L 140 216 L 139 217 L 139 216 L 135 213 L 131 214 L 130 213 L 116 213 Z M 172 222 L 171 225 L 172 225 L 172 222 Z " /><path fill="rgb(0,0,0)" stroke="rgb(0,0,0)" stroke-width="1" opacity="0" d="M 187 190 L 237.5 190 L 244 191 L 244.5 193 L 247 192 L 247.5 194 L 250 193 L 250.5 195 L 252.5 195 L 255 196.5 L 255 198 Q 258.8 196.5 258 199.5 L 260 199.5 L 259.5 201 L 262 202.5 L 263 206 L 267 207 Q 265.5 210.8 268.5 210 L 268.5 212 L 270 212.5 L 270 214.5 L 272 219.5 L 271 221.5 Q 273.7 223.8 273 229.5 L 271 233.5 L 272 235.5 Q 268.5 237 271 238.5 L 269 241.5 L 267 244.5 L 267.5 246 L 265 247.5 L 264 251 Q 261.3 249.9 262 252.5 L 253 257 Q 253.4 262.8 257.5 266 L 259 265.5 L 259 267.5 L 260.5 270 Q 263.1 269.2 262 272.5 L 264 272.5 L 264.5 276 L 266 275.5 Q 263.8 276.8 266.5 278 L 268 278.5 L 267.5 280 Q 270.1 279.2 269 282.5 L 271 282.5 L 271 284.5 L 274.5 290 L 276 289.5 L 275.5 291 Q 277.8 290.3 277 292.5 L 279.5 296 L 281 296 L 281 299 L 283 299 Q 281.5 302.7 284.5 302 L 288 306.5 L 288 309 L 291 310.5 L 292 314 L 261.5 314 L 260.5 313 L 259 313.5 L 259 311 Q 256 312.3 257 308.5 L 253.5 304 L 252 303.5 Q 254.5 302 251 300.5 Q 251.7 297.9 249 299 L 249 296 L 247.5 296 Q 249.2 293.7 245 291.5 L 244.5 290 L 243 290.5 L 243 288.5 L 232.5 273 L 231 272.5 Q 233.5 271 230 269.5 L 229.5 268 L 228 268.5 L 228 266.5 L 226.5 264 L 217.5 265 L 215.5 264 L 216 265.5 L 216 312.5 L 213.5 313 L 212.5 314 L 187 314 L 187 190 Z M 214 213 L 215 242 L 215 241 L 218 242 L 219 241 L 229 243 L 229 241 L 233 242 L 235 242 L 237 241 L 238 239 L 240 239 L 245 232 L 244 228 L 245 226 L 243 222 L 243 219 Q 240 220 241 218 L 240 218 L 240 217 L 237 214 L 232 213 L 214 213 Z M 215 265 L 214 312 L 215 312 L 215 265 Z " /><path fill="rgb(0,0,0)" stroke="rgb(0,0,0)" stroke-width="1" opacity="0" d="M 243.5 499 L 246 499.5 L 243.5 500 L 243.5 499 Z " /></svg>